<mxfile host="app.diagrams.net" modified="2024-01-31T12:29:02.431Z" agent="Mozilla/5.0 (Windows NT 10.0; Win64; x64) AppleWebKit/537.36 (KHTML, like Gecko) Chrome/119.0.0.0 Safari/537.36 OPR/105.0.0.0" version="23.0.2" etag="DWxfWjlmkPxpD7YU2uJq" type="github">
  <diagram name="PÃ¡gina-1" id="xZjqbECa1WeJohDLiyf2">
    <mxGraphModel>
      <root>
        <mxCell id="0" />
        <mxCell id="1" parent="0" />
      </root>
    </mxGraphModel>
  </diagram>
</mxfile>
